<svg height="161.55078pt" viewBox="0 0 340.15624 161.55078" width="340.15625pt" xmlns="http://www.w3.org/2000/svg"><g fill="#2d3979"><path d="m288.02344 102.66797c0 8.65234 3.52344 12.67968 8.96094 12.67968 5.43359 0 8.95312-4.02734 8.95312-12.67968 0-8.656248-3.51953-12.683598-8.95312-12.683598-5.4375 0-8.96094 4.02735-8.96094 12.683598m25.41406 0c0 11.57031-6.39062 18.16406-16.45312 18.16406-10.11719 0-16.50782-6.59375-16.50782-18.16406 0-11.574218 6.39063-18.167968 16.50782-18.167968 10.0625 0 16.45312 6.59375 16.45312 18.167968m-64.8125-17.562498h7.85156l7.24219 14.894528h.10156l7.44922-14.894528h7.59766l-11.625 21.183588v13.94141h-7.04297v-13.83985zm-20.37891 18.062498v17.0625h-7.04687v-35.124998h7.04687v15.398428h.0977l10.36719-15.398428h8.20312l-11.97656 16.402338 14.74219 18.72266h-8.85547l-12.48047-17.0625zm-39.09765-.5c0 8.65234 3.51953 12.67968 8.95703 12.67968 5.43359 0 8.95703-4.02734 8.95703-12.67968 0-8.656248-3.52344-12.683598-8.95703-12.683598-5.4375 0-8.95703 4.02735-8.95703 12.683598m25.41015 0c0 11.57031-6.39062 18.16406-16.45312 18.16406-10.11719 0-16.50781-6.59375-16.50781-18.16406 0-11.574218 6.39062-18.167968 16.50781-18.167968 10.0625 0 16.45312 6.59375 16.45312 18.167968m-35.67578-17.562498v5.98828l-9.61328-.0508v29.187498h-7.14453v-29.187498l-9.61328.0508v-5.98828zm140.99219-15.23829v-35.125h19.97656v5.83985h-13.03125v8.40234h12.37891v5.78516h-12.37891v9.21094h13.33594v5.88671zm-6.94531-6.89453.20312 6.08985c-1.96093.7539-4.57812 1.15625-7.44531 1.15625-10.51953 0-17.0625-6.54297-17.0625-17.91407 0-11.37109 6.54297-17.91406 16.65625-17.91406 2.87109 0 5.08203.20313 7.64844 1.20703l-.40235 6.08985c-2.21093-1.16016-4.125-1.5586-6.74218-1.5586-5.83594 0-9.66016 3.72266-9.66016 11.97657 0 8.30078 4.02734 12.22656 9.71094 12.22656 2.51562 0 4.6289-.30469 7.09375-1.35938m-36.9336-.60547-.30078-27.625h6.39063v35.125h-8.90625l-11.42188-27.77734h-.10156l.30469 27.77734h-6.34375v-35.125h9.00781l11.32422 27.625zm-47.59765 7.5v-35.125h19.97656v5.83985h-13.03516v8.40234h12.37891v5.78516h-12.37891v9.21094h13.33594v5.88671zm-8.45703 0h-7.04297v-35.125h7.04297zm-13.98828-6.89453.20312 6.08985c-1.96484.7539-4.57812 1.15625-7.44922 1.15625-10.51562 0-17.05859-6.54297-17.05859-17.91407 0-11.37109 6.54297-17.91406 16.65625-17.91406 2.86719 0 5.08203.20313 7.64844 1.20703l-.40235 6.08985c-2.21484-1.16016-4.125-1.5586-6.74219-1.5586-5.83593 0-9.66015 3.72266-9.66015 11.97657 0 8.30078 4.02344 12.22656 9.71094 12.22656 2.51562 0 4.6289-.30469 7.09375-1.35938m-31.2461-27.57422-.55469 5.73438c-2.71875-1.10547-4.88281-1.50781-6.99609-1.50781-3.67187 0-5.98828 1.55859-5.98828 3.97656 0 2.16016 1.15625 3.51953 6.23828 5.38281 6.39063 2.3125 9.10938 5.33203 9.10938 10.51563 0 6.84375-4.82813 10.96875-12.98047 10.96875-3.27344 0-6.33985-.5-9.21094-1.50782l.65625-6.1914c2.91797 1.46094 5.73437 2.01562 8.14844 2.01562 3.875 0 6.29297-1.5625 6.29297-4.3789 0-2.66797-1.46094-4.07422-6.64063-6.03907-6.14062-2.26171-8.75781-5.08203-8.75781-10.0625 0-6.24218 4.98047-10.16406 12.32812-10.16406 3.07032 0 5.63672.35156 8.35547 1.25781m100.98047-26.6289v-2.26953h2.82031v-1.09766c0-3.44531 1.22657-5.40234 4.41407-5.40234.70312 0 1.33203.0781 1.90625.23437l-.23829 2.375c-.41796-.15625-.83593-.23437-1.30468-.23437-1.4336 0-1.92969.85937-1.92969 2.97656v1.14844h3.28906v2.26953h-3.28906v11.07422h-2.84766v-11.07422zm-4.67578 4.39062c0-2.84765-1.41016-4.64843-3.62891-4.64843s-3.6289 1.80078-3.6289 4.64843c0 2.84375 1.41015 4.64844 3.6289 4.64844s3.62891-1.80469 3.62891-4.64844m-10.28906 0c0-4.17968 2.74218-7 6.66015-7 3.91407 0 6.66016 2.82032 6.66016 7 0 4.17578-2.74609 6.9961-6.66016 6.9961-3.91797 0-6.66015-2.82032-6.66015-6.9961m-14.10157-4.83203c-1.69531 0-3.02734 1.14844-3.21093 3.55078h6.00781c0-2.42968-1.125-3.55078-2.79688-3.55078m-6.13671 4.75391c0-4.12891 2.50781-6.92188 6.21484-6.92188 3.52734 0 5.5625 2.21875 5.5625 6.97266 0 .36719-.0234.62891-.0508.88672h-8.80078c.0781 2.32422 1.69922 3.76172 4.125 3.76172 1.4375 0 2.61328-.33985 3.73437-1.01953l.10547 2.58593c-1.12109.55078-2.55859.8086-4.09766.8086-4.23046 0-6.79296-2.63672-6.79296-7.07422m-8.06641 2.32422v-6.63672h-2.37891v-2.26953h2.40235v-2.97657l2.74609-.9414v3.91797h3.26172v2.26953h-3.26172v5.82422c0 2.14062.33594 3.13672 2.00781 3.13672.4961 0 .94141-.10547 1.33203-.26172l.0781 2.32422c-.60156.20703-1.33203.33984-2.11328.33984-3.10938 0-4.07422-1.72656-4.07422-4.72656m-16.45313-.52344v-8.41016h2.84766v6.76563c0 2.76562.36328 4.46484 2.58594 4.46484 1.95703 0 3.23437-2.03515 3.23437-4.4375v-6.79297h2.875v9.11719c0 1.66797.0547 3.13281.15625 4.25391h-2.71484c-.0781-.54688-.13281-1.25391-.13281-2.11328h-.0508c-.65235 1.38281-2.0625 2.42578-4.3086 2.42578-2.74219 0-4.49219-1.98438-4.49219-5.27344m-8.82421.52344v-6.63672h-2.37884v-2.26953h2.40234v-2.97657l2.74219-.9414v3.91797h3.26563v2.26953h-3.26563v5.82422c0 2.14062.33984 3.13672 2.01172 3.13672.49609 0 .94141-.10547 1.33203-.26172l.0781 2.32422c-.60157.20703-1.33204.33984-2.11719.33984-3.10547 0-4.07031-1.72656-4.07031-4.72656m-4.98829 4.4375h-2.89843v-13.3711h2.89843zm.0781-15.85157h-3.05469v-3.05468h3.05469zm-12.01172 11.41407v-6.63672h-2.37891v-2.26953h2.40235v-2.97657l2.74219-.9414v3.91797h3.26562v2.26953h-3.26562v5.82422c0 2.14062.33984 3.13672 2.01171 3.13672.4961 0 .94141-.10547 1.33204-.26172l.0781 2.32422c-.60156.20703-1.33203.33984-2.11328.33984-3.10938 0-4.07422-1.72656-4.07422-4.72656m-12.37891 4.07422.1836-2.48047c1.09765.59765 2.21875.88672 3.23828.88672 1.25391 0 2.27344-.57422 2.27344-1.64454 0-.99218-.57813-1.4375-2.58594-2.30078-2.32422-.99218-3.1875-1.95703-3.1875-3.78515 0-2.48047 1.93359-3.9961 4.77734-3.9961 1.17578 0 2.30078.1836 3.1875.55078l-.26172 2.34766c-.99218-.49609-1.90625-.67969-2.84765-.67969-1.14844 0-2.03516.55078-2.03516 1.54297s.62891 1.38281 2.375 2.0625c2.32422.94141 3.44922 1.98438 3.44922 4.01953 0 2.71875-2.0625 4.15235-4.96094 4.15235-1.30859 0-2.42968-.20703-3.60547-.67578m-14.72656-13.00782h2.76563c.0547.57422.082 1.46485.082 2.16797h.0508c.83594-1.5664 2.32422-2.48047 4.125-2.48047 3.44922 0 4.64844 2.35157 4.64844 5.95313v7.73047h-2.8711v-6.52735c0-2.71484-.18359-4.72656-2.55859-4.72656-1.125 0-2.11719.73047-2.71875 1.82813-.39063.73046-.57422 1.75-.57422 3.21093v6.21485h-2.84375v-9.32422c0-1.35547 0-2.76563-.10547-4.04688m-4.15234 13.3711h-3.05469v-18.22657h3.05469zm0 0"/><path d="m115.54688 1.617182c-49.253911 0-90.265631 14.23438-113.300791 33.52344-1.3125 1.1211-2.24609 2.6211-2.24609 4.67969v35.58203c0-.74609.55859-1.30859 1.68359-2.24609 31.64844-25.46875 72.85157-33.14844 113.863291-33.14844zm0 0"/><path d="m115.54688 118.02734v-35.695308c0 .9375-1.6836 1.3125-4.3086 1.5-42.507811 2.62109-83.148441 15.73047-111.238281 35.769528v41.94922c26.12109-18.03516 64.07422-33.48438 100.070311-38.58203.44532-.0586 9.23828-1.33985 10.33985-1.50782 1.33593-.20312 4.10937-.5 4.91797-2.2539.16796-.36719.21875-.85156.21875-1.17969"/></g><path d="m115.54688 82.332032c0-.9375-.9375-1.8711-2.4336-2.9961-19.570311-13.64843-44.101561-23.3125-72.371091-27.83593-14.01563 5.07812-27.20703 12.12109-39.0586 21.65625-1.125.9375-1.68359 1.5-1.68359 2.24609 0 .75.375.9375 1.87109 1.125 18.44922 1.96484 39.89063 6.85938 59.60938 15.34766 15.81641-4.22657 32.63672-6.98828 49.757811-8.04297 2.6211-.1875 4.3086-.5625 4.3086-1.5" fill="#758bbc"/></svg>