<svg height="150.00002pt" viewBox="0 0 137.16134 150.00002" width="137.16135pt" xmlns="http://www.w3.org/2000/svg"><g fill="#323e9d" stroke-width="1.47262"><path d="m89.45584 138.82878c-3.0487 0-8.0822.54647-8.0822 4.26254 0 1.48411.9608 2.79567 2.9625 3.16383 1.6741.30487 3.8656-.0172 6.2818-1.53016v-5.86745s-.7767-.0287-1.1563-.0287m-4.9529 11.17118c-3.624 0-7.4724-1.82351-7.4724-6.63252 0-3.92315 2.6692-6.47147 7.7198-7.51841 1.8408-.37966 4.5271-.47745 5.6892-.47745h.1552l.018-.15532v-2.13989c0-2.54258-1.5245-3.96918-4.2914-3.97492-2.0478 0-3.6816.9894-4.8032 2.56558-.1031-.0345-4.021-1.5129-4.1188-1.56466 2.0824-3.05453 5.2117-4.82628 8.922-4.82628 4.1878 0 8.6631 2.02485 8.6631 7.71398v16.39439h-4.389v-1.0527s-2.5311 1.6682-6.1034 1.6682"/><path d="m131.62104 138.82878c-3.043 0-8.0822.54647-8.0822 4.26254 0 1.48411.9665 2.79567 2.9626 3.16383 1.674.30487 3.8714-.0172 6.2816-1.53016v-5.86745s-.7766-.0287-1.162-.0287m-4.9471 11.17118c-3.6297 0-7.4724-1.82351-7.4724-6.63252 0-3.92315 2.6691-6.47147 7.7198-7.51841 1.835-.37966 4.5214-.47745 5.6891-.47745h.1554l.018-.15532v-2.13989c0-2.54258-1.5245-3.96918-4.2856-3.97492-2.0479 0-3.6873.9894-4.8033 2.56558-.1089-.0345-4.0267-1.5129-4.1187-1.56466 2.0766-3.05453 5.2117-4.82628 8.922-4.82628 4.1878 0 8.6631 2.02485 8.6631 7.71398v16.39439h-4.3833v-1.0527s-2.5368 1.6682-6.1034 1.6682"/><path d="m99.29824 149.38446v-33.36976h4.786v19.41439l7.7657-9.57202h5.6144l-7.1387 8.58261 8.0533 14.94478h-5.1369l-5.8962-11.36103-3.2616 3.9289v7.43213zm0 0"/><path d="m64.78954 149.99421c-4.4409 0-8.0879-2.20892-9.7849-5.92499l4.1935-1.55315c1.3346 3.30764 4.5157 3.66428 5.8387 3.66428 2.7554 0 4.6077-1.30578 4.6077-3.25011 0-1.0757-.5407-1.8005-1.7085-2.29521-.115-.0518-.2243-.0978-.3336-.14956-.6328-.28187-1.3461-.59825-4.5674-1.57617-2.6404-.82259-3.9404-1.47262-4.7975-2.38725-.9895-1.0642-1.5187-2.48504-1.5187-4.11297 0-4.34308 3.1639-7.15026 8.0592-7.15026 4.8377 0 7.6277 2.95675 8.9162 4.83203l-4.1245 1.56466c-1.2137-1.6797-2.8704-2.56557-4.7975-2.56557-1.6279 0-3.3594 1.15623-3.3594 2.88196 0 .85711.3682 1.5589 1.0354 1.97883l.092.0691c.627.44293 1.2137.86286 4.159 1.62793 3.4399.88587 5.1541 1.68546 6.1263 2.85896.8859 1.03542 1.3518 2.44476 1.3518 4.0727 0 4.43511-3.7736 7.41487-9.3879 7.41487"/><path d="m41.50374 120.48433c-3.88288.006-6.8914 3.07178-7.00069 7.13299-.10927 3.84261-.10927 6.18384 0 10.0092.11501 4.159 3.12355 7.29981 7.00069 7.30557 3.87137-.006 6.88564-3.14657 7.00068-7.29981.10352-3.83687.10352-6.17811 0-10.01496-.11501-4.06121-3.12356-7.12725-7.00068-7.13299zm0 28.91163c-6.83388 0-11.93626-5.2232-12.13186-12.41371-.092-3.34215-.092-5.26921 0-8.59411.18984-7.0467 5.40728-12.36194 12.13186-12.36194 6.8166 0 12.0455 5.30948 12.1663 12.36194.052 3.27313.034 5.21169 0 8.43305v.16106c-.075 7.07547-5.30368 12.41371-12.1663 12.41371"/><path d="m12.40802 149.39596c-6.95466 0-12.14335-5.30948-12.33892-12.62655-.0459-1.62218-.0691-18.50552-.0691-20.74321h5.20594c0 2.5138.0287 19.56397.0806 21.39898.12076 4.23378 3.17534 7.42637 7.12148 7.43213 3.9404-.006 7.00645-3.19835 7.12149-7.43213.0518-1.85803.0748-18.89092.0806-21.39898h5.20592l-.006 3.37091c-.006 5.63737-.0118 16.12402-.0287 17.3723-.0748 7.19627-5.39002 12.62655-12.37346 12.62655"/><path d="m120.20824 44.04049c-2.7899-21.24367-18.1949-38.50667-38.4375-44.04049l-13.9842 13.97837c17.8439 0 32.7427 12.6323 36.2344 29.44085-14.7951 1.69121-27.7381 9.46848-36.2344 20.79499-8.5021-11.32076-21.44503-19.10378-36.24023-20.79499 3.49747-16.80855 18.39047-29.44085 36.24023-29.44085l-13.9784-13.97837c-20.25424 5.53382-35.64771 22.79682-38.44337 44.04049-.29913 2.2722-.4602 4.59617-.4602 6.95467 0 3.15232.29337 6.23561.82259 9.23262 3.1063-.8456 6.37943-1.30005 9.75034-1.30005 2.14565 0 4.23378.18983 6.27589.53499 12.3907 2.11688 22.67605 10.38885 27.60585 21.56004.9089 2.05937 1.6279 4.21077 2.1514 6.4427.6385 2.7209.9837 5.55684.9837 8.47331 0 2.59435-.2647 5.12541-.7709 7.57593-.029.12076-.063.23584-.092.35666h12.3044c-.023-.12076-.058-.23586-.086-.35666-.5062-2.45052-.7766-4.98158-.7766-7.57593 0-2.91647.3509-5.74667.9837-8.47331.5292-2.23193 1.254-4.38333 2.1571-6.4427 4.9242-11.17119 15.2094-19.44316 27.6001-21.56004 2.0364-.34516 4.1303-.53499 6.2759-.53499 3.371 0 6.644.45445 9.7561 1.30005.5292-2.99701.8226-6.0803.8226-9.23262 0-2.3585-.1611-4.68247-.4602-6.95467"/></g></svg>